<?xml version="1.0" encoding="utf-8"?>
<!-- Generator: Adobe Illustrator 24.0.0, SVG Export Plug-In . SVG Version: 6.00 Build 0)  -->
<svg version="1.1" xmlns="http://www.w3.org/2000/svg" xmlns:xlink="http://www.w3.org/1999/xlink" x="0px" y="0px"
     viewBox="0 0 1500 1000" style="enable-background:new 0 0 1500 1000;" xml:space="preserve">
<style type="text/css">
	.st0{fill:url(#SVGID_1_);}
	.st1{opacity:0.2;fill:#FFFFFF;}
	.st2{opacity:0.4;fill:#FFFFFF;}
	.st3{opacity:0.7;fill:#FFFFFF;}
	.st4{fill:#CFF576;}
	.st5{filter:url(#Adobe_OpacityMaskFilter);}
	.st6{filter:url(#Adobe_OpacityMaskFilter_1_);}
	.st7{mask:url(#SVGID_2_);fill:url(#SVGID_3_);}
	.st8{opacity:0.2;fill:url(#SVGID_4_);}
	.st9{opacity:0.1;fill:#00E003;}
	.st10{fill:url(#SVGID_5_);}
	.st11{fill:#BEE464;}
	.st12{opacity:0.1;fill:#009E02;}
	.st13{filter:url(#Adobe_OpacityMaskFilter_2_);}
	.st14{filter:url(#Adobe_OpacityMaskFilter_3_);}
	.st15{mask:url(#SVGID_6_);fill:url(#SVGID_7_);}
	.st16{display:none;opacity:0.4;fill:url(#SVGID_8_);}
	.st17{filter:url(#Adobe_OpacityMaskFilter_4_);}
	.st18{filter:url(#Adobe_OpacityMaskFilter_5_);}
	.st19{mask:url(#SVGID_9_);fill:url(#SVGID_10_);}
	.st20{opacity:0.6;fill:url(#SVGID_11_);}
	.st21{opacity:0.4;fill:#7DC238;}
	.st22{fill:url(#SVGID_12_);}
	.st23{filter:url(#Adobe_OpacityMaskFilter_6_);}
	.st24{filter:url(#Adobe_OpacityMaskFilter_7_);}
	.st25{mask:url(#SVGID_13_);fill:url(#SVGID_14_);}
	.st26{fill:url(#SVGID_15_);}
	.st27{filter:url(#Adobe_OpacityMaskFilter_8_);}
	.st28{filter:url(#Adobe_OpacityMaskFilter_9_);}
	.st29{mask:url(#SVGID_16_);fill:url(#SVGID_17_);}
	.st30{opacity:0.6;fill:url(#SVGID_18_);}
	.st31{fill:#B7DB61;}
	.st32{fill:#A4D44C;}
	.st33{filter:url(#Adobe_OpacityMaskFilter_10_);}
	.st34{filter:url(#Adobe_OpacityMaskFilter_11_);}
	.st35{mask:url(#SVGID_19_);fill:url(#SVGID_20_);}
	.st36{fill:url(#SVGID_21_);}
	.st37{fill:#1D8C35;}
	.st38{fill:#19802F;}
	.st39{fill:#1F6B3D;}
	.st40{filter:url(#Adobe_OpacityMaskFilter_12_);}
	.st41{filter:url(#Adobe_OpacityMaskFilter_13_);}
	.st42{mask:url(#SVGID_22_);fill:url(#SVGID_23_);}
	.st43{opacity:0.2;fill:url(#SVGID_24_);}
</style>
    <g id="Layer_2">
	<linearGradient id="SVGID_1_" gradientUnits="userSpaceOnUse" x1="750" y1="-31.028" x2="750" y2="997.022">
		<stop offset="0" style="stop-color:#3E49FF"/>
        <stop offset="0.2724" style="stop-color:#0091FF"/>
        <stop offset="0.2992" style="stop-color:#0D97FC"/>
        <stop offset="0.4522" style="stop-color:#56B6ED"/>
        <stop offset="0.5962" style="stop-color:#92D0E0"/>
        <stop offset="0.727" style="stop-color:#C1E4D6"/>
        <stop offset="0.842" style="stop-color:#E3F3CF"/>
        <stop offset="0.937" style="stop-color:#F8FCCB"/>
        <stop offset="1" style="stop-color:#FFFFC9"/>
	</linearGradient>
        <rect class="st0" width="1500" height="1000"/>
        <path class="st1" d="M1044.34,324.13c1.54,0.18,3.1,0.27,4.69,0.27c22.23,0,40.26-18.03,40.26-40.26
		c0-22.24-18.03-40.27-40.26-40.27c-1.59,0-3.15,0.09-4.69,0.27c20.02,2.32,35.57,19.34,35.57,39.99
		C1079.91,304.79,1064.36,321.8,1044.34,324.13z"/>
        <g>
		<path class="st2" d="M1342.55,222.35c5,0.22,4.64,8.21-0.35,7.98C1337.2,230.11,1337.55,222.13,1342.55,222.35z"/>
            <path class="st2"
                  d="M1253.03,73.52c5.99,0.26,5.64,8.25-0.35,7.98C1247.68,81.28,1248.03,73.3,1253.03,73.52z"/>
            <path class="st2" d="M605.57,182.88c5,0.22,4.64,8.21-0.35,7.98C600.22,190.65,600.58,182.66,605.57,182.88z"/>
            <path class="st2"
                  d="M1440.45,113.36c5.99,0.26,5.64,8.25-0.35,7.98C1435.11,121.12,1435.46,113.14,1440.45,113.36z"/>
            <path class="st3" d="M1012.45,81.39c3,0.13,2.78,5.12-0.22,4.99C1008.23,86.2,1008.45,81.21,1012.45,81.39z"/>
            <path class="st3"
                  d="M1315.61,446.75c3,0.13,2.78,5.12-0.22,4.99C1312.4,451.61,1312.62,446.62,1315.61,446.75z"/>
            <path class="st1" d="M1147.11,205.38c3,0.13,2.78,5.12-0.22,4.99S1144.11,205.24,1147.11,205.38z"/>
            <path class="st3" d="M484.41,70.54c3,0.13,2.78,5.12-0.22,4.99C481.19,75.4,481.41,70.41,484.41,70.54z"/>
	</g>
</g>
    <g id="Layer_3">
	<g>
		<path class="st4"
              d="M1186.57,1000H0V726.16c0,0,186.12-100.67,330.11-96.59C548.39,635.76,1186.57,1000,1186.57,1000z"/>
        <defs>
			<filter id="Adobe_OpacityMaskFilter" filterUnits="userSpaceOnUse" x="0" y="670.02" width="648.26"
                    height="183.02">
				<feFlood style="flood-color:white;flood-opacity:1" result="back"/>
                <feBlend in="SourceGraphic" in2="back" mode="normal"/>
			</filter>
		</defs>
        <mask maskUnits="userSpaceOnUse" x="0" y="670.02" width="648.26" height="183.02" id="SVGID_2_">
			<g class="st5">
				<defs>
					<filter id="Adobe_OpacityMaskFilter_1_" filterUnits="userSpaceOnUse" x="0" y="670.02" width="648.26"
                            height="183.02">
						<feFlood style="flood-color:white;flood-opacity:1" result="back"/>
                        <feBlend in="SourceGraphic" in2="back" mode="normal"/>
					</filter>
				</defs>
                <mask maskUnits="userSpaceOnUse" x="0" y="670.02" width="648.26" height="183.02" id="SVGID_2_">
					<g class="st6">
					</g>
				</mask>
                <linearGradient id="SVGID_3_" gradientUnits="userSpaceOnUse" x1="3.124" y1="761.5268" x2="635.483"
                                y2="761.5268">
					<stop offset="0" style="stop-color:#FFFFFF"/>
                    <stop offset="0.0345" style="stop-color:#ECECEC"/>
                    <stop offset="0.144" style="stop-color:#B5B5B5"/>
                    <stop offset="0.2574" style="stop-color:#858585"/>
                    <stop offset="0.3723" style="stop-color:#5C5C5C"/>
                    <stop offset="0.4889" style="stop-color:#3B3B3B"/>
                    <stop offset="0.608" style="stop-color:#212121"/>
                    <stop offset="0.7303" style="stop-color:#0F0F0F"/>
                    <stop offset="0.8581" style="stop-color:#040404"/>
                    <stop offset="1" style="stop-color:#000000"/>
				</linearGradient>
                <path class="st7" d="M0,850V738.41c0,0,322.61-148.28,589.6-8.16C879.62,882.46,0,850.17,0,850.17"/>
			</g>
		</mask>
        <linearGradient id="SVGID_4_" gradientUnits="userSpaceOnUse" x1="3.124" y1="761.5268" x2="635.483"
                        y2="761.5268">
			<stop offset="0" style="stop-color:#00E003"/>
            <stop offset="0.0517" style="stop-color:#00E003"/>
            <stop offset="1" style="stop-color:#00E003"/>
		</linearGradient>
        <path class="st8" d="M0,850V738.41c0,0,322.61-148.28,589.6-8.16C879.62,882.46,0,850.17,0,850.17"/>
        <path class="st9" d="M840.09,870.37C898.42,931.89,511.02,1000,326,1000c-96.25,0-228.75-29.66-326-65.38V769.46
			c120.77-41.17,292.39-76,365-79.65C480.82,683.98,775.59,802.35,840.09,870.37z"/>
	</g>
</g>
    <g id="Layer_8">
	<linearGradient id="SVGID_5_" gradientUnits="userSpaceOnUse" x1="188.991" y1="841.5677" x2="1807.9709"
                    y2="841.5677">
		<stop offset="0" style="stop-color:#E2FF8A"/>
        <stop offset="0.15" style="stop-color:#DEFF88"/>
        <stop offset="0.285" style="stop-color:#D3FD81"/>
        <stop offset="0.4142" style="stop-color:#C1FA76"/>
        <stop offset="0.5399" style="stop-color:#A7F767"/>
        <stop offset="0.6632" style="stop-color:#86F253"/>
        <stop offset="0.7845" style="stop-color:#5DED3B"/>
        <stop offset="0.902" style="stop-color:#2EE61E"/>
        <stop offset="1" style="stop-color:#00E003"/>
	</linearGradient>
        <path class="st10" d="M0,1000V826c553.6-181.92,813.09-228.41,1500,91.07V1000H0"/>
</g>
    <g id="Layer_4">
	<path class="st11" d="M1500,644.08V1000H0V789.58c145.62-45,313.06-16.25,429.11-21c0.44-0.02,0.88-0.04,1.33-0.06
		c140.7-6.57,647-153.58,784.63-170.93c0.75-0.1,1.51-0.19,2.26-0.28C1359.43,580.26,1500,644.08,1500,644.08z"/>
        <path class="st4" d="M439,899C309.96,974.27,0,1000,0,1000V789.58c145.62-45,313.06-16.25,429.11-21c0.44-0.02,0.88-0.04,1.33-0.06
		c140.7-6.57,647-153.58,784.63-170.93c0.75-0.1,1.51-0.19,2.26-0.28c0.22,0.23,0.45,0.46,0.67,0.69C1324,708,655,773,439,899z"/>
        <path class="st12" d="M1500,735.62V1000H72.12c524.54-71.82,793.29-252.12,1103.24-292.54
		C1294.6,691.91,1405.86,700.65,1500,735.62z"/>
        <defs>
		<filter id="Adobe_OpacityMaskFilter_2_" filterUnits="userSpaceOnUse" x="523.99" y="734.73" width="950.56"
                height="265.27">
			<feFlood style="flood-color:white;flood-opacity:1" result="back"/>
            <feBlend in="SourceGraphic" in2="back" mode="normal"/>
		</filter>
	</defs>
        <mask maskUnits="userSpaceOnUse" x="523.99" y="734.73" width="950.56" height="265.27" id="SVGID_6_">
		<g class="st13">
			<defs>
				<filter id="Adobe_OpacityMaskFilter_3_" filterUnits="userSpaceOnUse" x="523.99" y="734.73"
                        width="950.56" height="265.27">
					<feFlood style="flood-color:white;flood-opacity:1" result="back"/>
                    <feBlend in="SourceGraphic" in2="back" mode="normal"/>
				</filter>
			</defs>
            <mask maskUnits="userSpaceOnUse" x="523.99" y="734.73" width="950.56" height="265.27" id="SVGID_6_">
				<g class="st14">
				</g>
			</mask>
            <linearGradient id="SVGID_7_" gradientUnits="userSpaceOnUse" x1="531.6313" y1="959.1481" x2="1472.3107"
                            y2="749.5001">
				<stop offset="0" style="stop-color:#FFFFFF"/>
                <stop offset="0.0967" style="stop-color:#DFDFDF"/>
                <stop offset="0.3511" style="stop-color:#919191"/>
                <stop offset="0.5776" style="stop-color:#535353"/>
                <stop offset="0.7679" style="stop-color:#262626"/>
                <stop offset="0.9146" style="stop-color:#0A0A0A"/>
                <stop offset="1" style="stop-color:#000000"/>
			</linearGradient>
            <path class="st15" d="M609.1,944.07c170.99-24,347.79-178.53,535.47-202.49c140.99-18,139.49,0,329.98,48
				c0,0-220.54-49.5-369.03,7.5C972.82,848.01,720.09,1000,720.09,1000C499.88,969.4,468.46,963.81,609.1,944.07z"/>
		</g>
	</mask>
        <linearGradient id="SVGID_8_" gradientUnits="userSpaceOnUse" x1="531.6313" y1="959.1481" x2="1472.3107"
                        y2="749.5001">
		<stop offset="0" style="stop-color:#31B533"/>
            <stop offset="0.4153" style="stop-color:#57BC36"/>
            <stop offset="0.7847" style="stop-color:#73C037"/>
            <stop offset="1" style="stop-color:#7DC238"/>
	</linearGradient>
        <path class="st16" d="M609.1,944.07c170.99-24,347.79-178.53,535.47-202.49c140.99-18,139.49,0,329.98,48
		c0,0-220.54-49.5-369.03,7.5C972.82,848.01,720.09,1000,720.09,1000C499.88,969.4,468.46,963.81,609.1,944.07z"/>
        <defs>
		<filter id="Adobe_OpacityMaskFilter_4_" filterUnits="userSpaceOnUse" x="0" y="796.73" width="923"
                height="203.27">
			<feFlood style="flood-color:white;flood-opacity:1" result="back"/>
            <feBlend in="SourceGraphic" in2="back" mode="normal"/>
		</filter>
	</defs>
        <mask maskUnits="userSpaceOnUse" x="0" y="796.73" width="923" height="203.27" id="SVGID_9_">
		<g class="st17">
			<defs>
				<filter id="Adobe_OpacityMaskFilter_5_" filterUnits="userSpaceOnUse" x="0" y="796.73" width="923"
                        height="203.27">
					<feFlood style="flood-color:white;flood-opacity:1" result="back"/>
                    <feBlend in="SourceGraphic" in2="back" mode="normal"/>
				</filter>
			</defs>
            <mask maskUnits="userSpaceOnUse" x="0" y="796.73" width="923" height="203.27" id="SVGID_9_">
				<g class="st18">
				</g>
			</mask>
            <linearGradient id="SVGID_10_" gradientUnits="userSpaceOnUse" x1="0" y1="898.3639" x2="699.0802"
                            y2="898.3639">
				<stop offset="0" style="stop-color:#FFFFFF"/>
                <stop offset="0.0392" style="stop-color:#EEEEEE"/>
                <stop offset="0.1944" style="stop-color:#B0B0B0"/>
                <stop offset="0.3481" style="stop-color:#7A7A7A"/>
                <stop offset="0.4968" style="stop-color:#4E4E4E"/>
                <stop offset="0.6393" style="stop-color:#2C2C2C"/>
                <stop offset="0.7739" style="stop-color:#141414"/>
                <stop offset="0.8975" style="stop-color:#050505"/>
                <stop offset="1" style="stop-color:#000000"/>
			</linearGradient>
            <path class="st19" d="M0,813c0,0,461-98,923,187H0V813z"/>
		</g>
	</mask>
        <linearGradient id="SVGID_11_" gradientUnits="userSpaceOnUse" x1="0" y1="898.3639" x2="699.0802" y2="898.3639">
		<stop offset="0" style="stop-color:#31B533"/>
            <stop offset="0.2715" style="stop-color:#51BA35"/>
            <stop offset="0.5429" style="stop-color:#69BF37"/>
            <stop offset="0.7928" style="stop-color:#78C138"/>
            <stop offset="1" style="stop-color:#7DC238"/>
	</linearGradient>
        <path class="st20" d="M0,813c0,0,461-98,923,187H0V813z"/>
        <path class="st21"
              d="M933,955c26.66,67.85-242.34,22-450,22s-378,42.9-378-30s200.34-136,408-136S911,899,933,955z"/>
</g>
    <g id="Layer_5">
	<linearGradient id="SVGID_12_" gradientUnits="userSpaceOnUse" x1="888.055" y1="821.0744" x2="888.055"
                    y2="1002.7883">
		<stop offset="0" style="stop-color:#88CD40"/>
        <stop offset="1" style="stop-color:#7DC238"/>
	</linearGradient>
        <path class="st22" d="M1500,816.57V1000H276.11c0,0,558.4-173.71,760.47-183.43c18.77-0.9,36.62-1.04,53.88-0.66
		C1216.7,818.7,1311.36,849.56,1500,816.57z"/>
        <defs>
		<filter id="Adobe_OpacityMaskFilter_6_" filterUnits="userSpaceOnUse" x="400" y="850.29" width="799.01"
                height="149.71">
			<feFlood style="flood-color:white;flood-opacity:1" result="back"/>
            <feBlend in="SourceGraphic" in2="back" mode="normal"/>
		</filter>
	</defs>
        <mask maskUnits="userSpaceOnUse" x="400" y="850.29" width="799.01" height="149.71" id="SVGID_13_">
		<g class="st23">
			<defs>
				<filter id="Adobe_OpacityMaskFilter_7_" filterUnits="userSpaceOnUse" x="400" y="850.29" width="799.01"
                        height="149.71">
					<feFlood style="flood-color:white;flood-opacity:1" result="back"/>
                    <feBlend in="SourceGraphic" in2="back" mode="normal"/>
				</filter>
			</defs>
            <mask maskUnits="userSpaceOnUse" x="400" y="850.29" width="799.01" height="149.71" id="SVGID_13_">
				<g class="st24">
				</g>
			</mask>
            <linearGradient id="SVGID_14_" gradientUnits="userSpaceOnUse" x1="555.551" y1="951.9544" x2="1346.4845"
                            y2="861.968">
				<stop offset="0" style="stop-color:#FFFFFF"/>
                <stop offset="0.4599" style="stop-color:#838383"/>
                <stop offset="0.8332" style="stop-color:#252525"/>
                <stop offset="1" style="stop-color:#000000"/>
			</linearGradient>
            <path class="st25"
                  d="M1199.01,864.3c0,0-399.42,0.78-594.86,135.7H400C400,1000,840.16,795.95,1199.01,864.3z"/>
		</g>
	</mask>
        <linearGradient id="SVGID_15_" gradientUnits="userSpaceOnUse" x1="555.551" y1="951.9544" x2="1346.4845"
                        y2="861.968">
		<stop offset="0" style="stop-color:#31B533"/>
            <stop offset="0.4919" style="stop-color:#58BC36"/>
            <stop offset="1" style="stop-color:#7DC238"/>
	</linearGradient>
        <path class="st26" d="M1199.01,864.3c0,0-399.42,0.78-594.86,135.7H400C400,1000,840.16,795.95,1199.01,864.3z"/>
        <defs>
		<filter id="Adobe_OpacityMaskFilter_8_" filterUnits="userSpaceOnUse" x="868.58" y="841.94" width="631.42"
                height="158.06">
			<feFlood style="flood-color:white;flood-opacity:1" result="back"/>
            <feBlend in="SourceGraphic" in2="back" mode="normal"/>
		</filter>
	</defs>
        <mask maskUnits="userSpaceOnUse" x="868.58" y="841.94" width="631.42" height="158.06" id="SVGID_16_">
		<g class="st27">
			<defs>
				<filter id="Adobe_OpacityMaskFilter_9_" filterUnits="userSpaceOnUse" x="868.58" y="841.94"
                        width="631.42" height="158.06">
					<feFlood style="flood-color:white;flood-opacity:1" result="back"/>
                    <feBlend in="SourceGraphic" in2="back" mode="normal"/>
				</filter>
			</defs>
            <mask maskUnits="userSpaceOnUse" x="868.58" y="841.94" width="631.42" height="158.06" id="SVGID_16_">
				<g class="st28">
				</g>
			</mask>
            <linearGradient id="SVGID_17_" gradientUnits="userSpaceOnUse" x1="1517.3123" y1="895.5406" x2="872.3455"
                            y2="1048.5333">
				<stop offset="0" style="stop-color:#FFFFFF"/>
                <stop offset="0.4599" style="stop-color:#838383"/>
                <stop offset="0.8332" style="stop-color:#252525"/>
                <stop offset="1" style="stop-color:#000000"/>
			</linearGradient>
            <path class="st29"
                  d="M1500,1000V842.07c0,0-97.44-3-253.43,19.5C1090.57,884.07,868.58,1000,868.58,1000H1500z"/>
		</g>
	</mask>
        <linearGradient id="SVGID_18_" gradientUnits="userSpaceOnUse" x1="1517.3123" y1="895.5406" x2="872.3455"
                        y2="1048.5333">
		<stop offset="0" style="stop-color:#31B533"/>
            <stop offset="0.4919" style="stop-color:#58BC36"/>
            <stop offset="1" style="stop-color:#7DC238"/>
	</linearGradient>
        <path class="st30" d="M1500,1000V842.07c0,0-97.44-3-253.43,19.5C1090.57,884.07,868.58,1000,868.58,1000H1500z"/>
</g>
    <g id="Layer_6">
	<path class="st31" d="M1500,894.57c0,0-74.94-13.5-176.94-6C1177.17,899.31,504.1,1000,504.1,1000H1500V894.57z"/>
        <path class="st32" d="M1500,900v100H923c0,0,263.11-87.27,409-98C1433.99,894.5,1500,900,1500,900z"/>
        <defs>
		<filter id="Adobe_OpacityMaskFilter_10_" filterUnits="userSpaceOnUse" x="1001.55" y="929.58" width="498.45"
                height="70.42">
			<feFlood style="flood-color:white;flood-opacity:1" result="back"/>
            <feBlend in="SourceGraphic" in2="back" mode="normal"/>
		</filter>
	</defs>
        <mask maskUnits="userSpaceOnUse" x="1001.55" y="929.58" width="498.45" height="70.42" id="SVGID_19_">
		<g class="st33">
			<defs>
				<filter id="Adobe_OpacityMaskFilter_11_" filterUnits="userSpaceOnUse" x="1001.55" y="929.58"
                        width="498.45" height="70.42">
					<feFlood style="flood-color:white;flood-opacity:1" result="back"/>
                    <feBlend in="SourceGraphic" in2="back" mode="normal"/>
				</filter>
			</defs>
            <mask maskUnits="userSpaceOnUse" x="1001.55" y="929.58" width="498.45" height="70.42" id="SVGID_19_">
				<g class="st34">
				</g>
			</mask>
            <linearGradient id="SVGID_20_" gradientUnits="userSpaceOnUse" x1="1004.299" y1="989.7208" x2="1561.5769"
                            y2="926.318">
				<stop offset="0" style="stop-color:#FFFFFF"/>
                <stop offset="0.4089" style="stop-color:#919191"/>
                <stop offset="0.8178" style="stop-color:#292929"/>
                <stop offset="1" style="stop-color:#000000"/>
			</linearGradient>
            <path class="st35" d="M1001.55,1000c88.35-66.78,360.14-76.74,498.45-67.46v16.52c-84.26,3.11-221.33,14.17-355.94,50.94H1001.55
				z"/>
		</g>
	</mask>
        <linearGradient id="SVGID_21_" gradientUnits="userSpaceOnUse" x1="1004.299" y1="989.7208" x2="1561.5769"
                        y2="926.318">
		<stop offset="0" style="stop-color:#7DC238"/>
            <stop offset="1" style="stop-color:#96E044"/>
	</linearGradient>
        <path class="st36"
              d="M1001.55,1000c88.35-66.78,360.14-76.74,498.45-67.46v16.52c-84.26,3.11-221.33,14.17-355.94,50.94H1001.55z"
        />
</g>
    <g id="Layer_7">
	<path class="st37" d="M661.91,898.64l7.43-11.64l-11.22,10.96c-2.69-0.48-5.38-0.96-8.06-1.44L645,879l2.23,17.02
		C589.45,885.75,526.55,875.5,474,867.5l6.75-11l-9.93,10.28c-0.64-0.1-1.27-0.19-1.91-0.29L468.5,838l-5,27.75
		c-5.98-0.88-15.46-2.33-21.31-3.17c-8.78-1.26-23.74-3.44-32.19-4.58l-15.5-28.5l10.91,28.02c-56.57-7.45-104.6-12.08-138.3-12.45
		c-1.45-0.01-2.9-0.03-4.35-0.04c-3.2-0.02-6.4-0.02-9.58,0c-16.44,0.09-43.88,1.34-59.68,2.22L208,816.5l-18,31.25V827.5
		l-5.3,20.35c-34.86,2.61-67.17,6.71-94.7,11.01V837l-4.32,22.54c-1.17,0.19-2.34,0.37-3.49,0.56L75,846.67l4.03,13.96
		C30.96,868.57,0,876.57,0,876.57V1000h1173.07C1173.07,1000,911.66,943.42,661.91,898.64z"/>
        <path class="st38" d="M821,1000H0V876.57c0,0,119.24-30.84,253.18-31.54C388.3,863.66,711,1005,821,1000z"/>
        <path class="st39" d="M835,1000H0v-41c0,0,211.81-93.58,401-38C660.19,997.14,835,1000,835,1000z"/>
</g>
    <g id="Layer_10">
	<defs>
		<filter id="Adobe_OpacityMaskFilter_12_" filterUnits="userSpaceOnUse" x="0" y="0" width="1500" height="1000">
			<feFlood style="flood-color:white;flood-opacity:1" result="back"/>
            <feBlend in="SourceGraphic" in2="back" mode="normal"/>
		</filter>
	</defs>
        <mask maskUnits="userSpaceOnUse" x="0" y="0" width="1500" height="1000" id="SVGID_22_">
		<g class="st40">
			<defs>
				<filter id="Adobe_OpacityMaskFilter_13_" filterUnits="userSpaceOnUse" x="0" y="0" width="1500"
                        height="1000">
					<feFlood style="flood-color:white;flood-opacity:1" result="back"/>
                    <feBlend in="SourceGraphic" in2="back" mode="normal"/>
				</filter>
			</defs>
            <mask maskUnits="userSpaceOnUse" x="0" y="0" width="1500" height="1000" id="SVGID_22_">
				<g class="st41">
				</g>
			</mask>
            <linearGradient id="SVGID_23_" gradientUnits="userSpaceOnUse" x1="-239.3203" y1="688.8553" x2="1473.8584"
                            y2="361.8197">
				<stop offset="0" style="stop-color:#FFFFFF"/>
                <stop offset="0.1612" style="stop-color:#C9C9C9"/>
                <stop offset="0.3913" style="stop-color:#828282"/>
                <stop offset="0.5986" style="stop-color:#4A4A4A"/>
                <stop offset="0.7755" style="stop-color:#222222"/>
                <stop offset="0.9151" style="stop-color:#090909"/>
                <stop offset="1" style="stop-color:#000000"/>
			</linearGradient>
            <rect class="st42" width="1500" height="1000"/>
		</g>
	</mask>
        <linearGradient id="SVGID_24_" gradientUnits="userSpaceOnUse" x1="-239.3203" y1="688.8553" x2="1473.8584"
                        y2="361.8197">
		<stop offset="0" style="stop-color:#FFCE1E"/>
            <stop offset="0.0489" style="stop-color:#FFD123"/>
            <stop offset="0.4666" style="stop-color:#FFEA4B"/>
            <stop offset="0.7981" style="stop-color:#FFF964"/>
            <stop offset="1" style="stop-color:#FFFF6D"/>
	</linearGradient>
        <rect class="st43" width="1500" height="1000"/>
</g>
</svg>
